<?xml version="1.0" encoding="utf-8"?>
<svg preserveAspectRatio="xMidYMid meet" version="1.1" xmlns="http://www.w3.org/2000/svg" style="display: block;" viewBox="0 0 2048 2048" width="1024" height="1024">
  <defs>
    <radialGradient gradientUnits="userSpaceOnUse" cx="1457.27" cy="591.704" r="251.2" id="gradient-0" gradientTransform="matrix(1, 0, 0, 1, 0, -9.46831)">
      <stop offset="0" style="stop-color: #bada55"/>
      <stop offset="1" style="stop-color: #758d29"/>
    </radialGradient>
    <radialGradient gradientUnits="userSpaceOnUse" cx="746.739" cy="490.102" r="378.552" id="gradient-2" gradientTransform="matrix(1, 0, 0, 1, 0, -9.46831)">
      <stop offset="0" style="stop-color: rgb(47.843% 47.843% 47.843%)"/>
      <stop offset="1" style="stop-color: rgb(28.363% 28.363% 28.363%)"/>
    </radialGradient>
    <radialGradient gradientUnits="userSpaceOnUse" cx="1420.778" cy="955.297" r="157.552" id="gradient-3" gradientTransform="matrix(1, 0, 0, 1, 0, -9.46831)">
      <stop offset="0" style="stop-color: rgb(29.804% 29.804% 29.412%)"/>
      <stop offset="1" style="stop-color: rgb(18.431% 18.431% 18.068%)"/>
    </radialGradient>
    <radialGradient gradientUnits="userSpaceOnUse" cx="1435.77" cy="1264.615" r="85.02" id="gradient-4" gradientTransform="matrix(1, 0, 0, 1, 0, -9.46831)">
      <stop offset="0" style="stop-color: rgb(29.804% 29.804% 29.412%)"/>
      <stop offset="1" style="stop-color: rgb(18.431% 18.431% 18.068%)"/>
    </radialGradient>
    <radialGradient gradientUnits="userSpaceOnUse" cx="941.759" cy="750.315" r="393.351" id="gradient-1" gradientTransform="matrix(1, 0, 0, 1, 0, -9.46831)">
      <stop offset="0" style="stop-color: rgb(50.196% 50.196% 50.196%)"/>
      <stop offset="1" style="stop-color: rgb(29.651% 29.651% 29.651%)"/>
    </radialGradient>
    <linearGradient gradientUnits="userSpaceOnUse" x1="1076.128" y1="1082.78" x2="1076.128" y2="1694.23" id="gradient-6" gradientTransform="matrix(1, 0, 0, 1, 0, -9.46831)">
      <stop offset="0" style="stop-color: rgb(32.157% 32.157% 32.157%)"/>
      <stop offset="1" style="stop-color: rgb(19.727% 19.727% 19.727%)"/>
    </linearGradient>
    <linearGradient gradientUnits="userSpaceOnUse" x1="608.578" y1="997.477" x2="608.578" y2="1882.789" id="gradient-5" gradientTransform="matrix(1, 0, 0, 1, 0, -9.46831)">
      <stop offset="0" style="stop-color: rgb(47.059% 47.059% 47.059%)"/>
      <stop offset="1" style="stop-color: rgb(27.933% 27.933% 27.933%)"/>
    </linearGradient>
    <radialGradient gradientUnits="userSpaceOnUse" cx="463.619" cy="1066.065" r="205.885" id="gradient-7" gradientTransform="matrix(1, 0, 0, 1, 0, -9.46831)">
      <stop offset="0" style="stop-color: rgb(81.569% 81.569% 81.569%)"/>
      <stop offset="1" style="stop-color: rgb(46.721% 46.721% 46.721%)"/>
    </radialGradient>
    <radialGradient gradientUnits="userSpaceOnUse" cx="1194.985" cy="1233.065" r="99.846" id="gradient-8" gradientTransform="matrix(1, 0, 0, 1, 0, -9.46831)">
      <stop offset="0" style="stop-color: rgb(26.275% 26.275% 26.275%)"/>
      <stop offset="1" style="stop-color: rgb(16.459% 16.459% 16.459%)"/>
    </radialGradient>
    <radialGradient gradientUnits="userSpaceOnUse" cx="720.158" cy="924.753" r="446.162" id="gradient-9" gradientTransform="matrix(1, 0, 0, 1, 0, -9.46831)">
      <stop offset="0" style="stop-color: rgb(59.608% 59.608% 59.608%)"/>
      <stop offset="1" style="stop-color: rgb(34.791% 34.791% 34.791%)"/>
    </radialGradient>
    <radialGradient gradientUnits="userSpaceOnUse" cx="1366.685" cy="1353" r="110.925" id="gradient-10" gradientTransform="matrix(1, 0, 0, 1, 0, -9.46831)">
      <stop offset="0" style="stop-color: rgb(56.078% 56.078% 56.078%)"/>
      <stop offset="1" style="stop-color: rgb(32.866% 32.866% 32.866%)"/>
    </radialGradient>
    <linearGradient gradientUnits="userSpaceOnUse" x1="222.24" y1="811.725" x2="222.24" y2="1668.42" id="gradient-11" gradientTransform="matrix(1, 0, 0, 1, 0, -9.46831)">
      <stop offset="0" style="stop-color: rgb(94.118% 94.118% 94.118%)"/>
      <stop offset="1" style="stop-color: rgb(53.51% 53.51% 53.51%)"/>
    </linearGradient>
    <linearGradient gradientUnits="userSpaceOnUse" x1="574.026" y1="981.531" x2="574.026" y2="1920.901" id="gradient-12" gradientTransform="matrix(1, 0, 0, 1, 0, -9.46831)">
      <stop offset="0" style="stop-color: rgb(100% 100% 100%)"/>
      <stop offset="1" style="stop-color: rgb(56.687% 56.687% 56.687%)"/>
    </linearGradient>
    <linearGradient gradientUnits="userSpaceOnUse" x1="1074.2" y1="1512.086" x2="1074.2" y2="1739.1" id="gradient-13" gradientTransform="matrix(1, 0, 0, 1, 0, -9.46831)">
      <stop offset="0" style="stop-color: rgb(100% 100% 100%)"/>
      <stop offset="1" style="stop-color: rgb(56.687% 56.687% 56.687%)"/>
    </linearGradient>
    <radialGradient gradientUnits="userSpaceOnUse" cx="1190.346" cy="1235.061" r="27.423" id="gradient-14" gradientTransform="matrix(1, 0, 0, 1, 0, -9.46831)">
      <stop offset="0" style="stop-color: rgb(57.647% 57.647% 57.647%)"/>
      <stop offset="1" style="stop-color: rgb(33.722% 33.722% 33.722%)"/>
    </radialGradient>
    <radialGradient gradientUnits="userSpaceOnUse" cx="1195.085" cy="1232.544" r="68.025" id="gradient-15" gradientTransform="matrix(1, 0, 0, 1, 0, -9.46831)">
      <stop offset="0" style="stop-color: rgb(76.863% 76.863% 76.863%)"/>
      <stop offset="1" style="stop-color: rgb(44.17% 44.17% 44.17%)"/>
    </radialGradient>
  </defs>
  <g id="Complete" transform="matrix(8.627297, -32.19751, 32.19751, 8.627297, 1554.456299, 1621.441895)" style="transform-origin: 12px 12px;">
    <g id="signal">
      <g>
        <path d="M 4.501 6.501 C 4.501 3.318 6 0.655 8.216 -1.037 C 11.092 -3.232 15.174 -3.791 18.751 -1.726 C 25.084 1.93 25.084 11.072 18.751 14.728 C 17.307 15.562 15.669 16.001 14.001 16.001" fill="none" stroke-linecap="round" stroke-linejoin="round" stroke-width="2" style="transform-box: fill-box; transform-origin: 50% 50%; stroke: rgb(255, 255, 255);" transform="matrix(-0.882051, 0.471154, -0.471154, -0.882051, -0.000001, 0)"/>
        <path d="M 9.352 6.954 C 9.352 3.49 13.102 1.325 16.102 3.057 C 19.102 4.789 19.102 9.119 16.102 10.851 C 15.418 11.246 14.642 11.454 13.852 11.454" fill="none" stroke-linecap="round" stroke-linejoin="round" stroke-width="2" style="transform-box: fill-box; transform-origin: 50% 50%; stroke: rgb(255, 255, 255);" transform="matrix(-0.908474, 0.417942, -0.417942, -0.908474, 0.000001, 0)"/>
      </g>
    </g>
  </g>
  <path stroke="rgb(254,0,0)" d="M 1630.56 994.771 C 1638 992.481 1643.87 993.531 1651.63 994.771 C 1660.84 996.231 1669.49 1002.58 1682.36 1004.42 C 1699.41 1006.85 1730.86 1005.62 1747.34 1004.42 C 1759.02 1003.57 1768.45 998.711 1774.55 1000.04 C 1778.7 1000.93 1781.16 1003.42 1782.89 1006.61 C 1784.87 1010.29 1786.13 1016.59 1784.64 1021.55 C 1782.91 1027.29 1778.14 1032.59 1771.03 1038.66 C 1760.76 1047.42 1731.5 1058.29 1724.06 1067.2 C 1719.48 1072.7 1721.95 1078.99 1719.67 1083 C 1717.76 1086.36 1715.77 1087.65 1712.2 1090.47 C 1707.1 1094.49 1700.78 1100.21 1690.26 1104.51 C 1674.64 1110.9 1625.36 1118.21 1622.22 1121.2 C 1621.44 1121.93 1622.8 1122.17 1623.54 1122.95 C 1624.82 1124.29 1628.7 1125.92 1630.12 1128.65 C 1631.8 1131.88 1632.85 1138.13 1631.88 1141.82 C 1630.99 1145.2 1628.86 1147.17 1625.29 1150.16 C 1619.92 1154.66 1609.6 1160.4 1599.84 1165.08 C 1588.64 1170.46 1573.57 1176.98 1561.2 1180.02 C 1549.95 1182.79 1542.6 1184.66 1528.72 1183.53 C 1508.72 1181.88 1470.86 1172.26 1449.7 1164.22 C 1432.78 1157.78 1414.61 1149.15 1408.88 1141.82 C 1405.4 1137.38 1405.93 1132.82 1407.12 1128.65 C 1408.41 1124.14 1410.94 1121.59 1417.22 1115.92 C 1429.39 1104.92 1459.06 1082.6 1486.57 1066.76 C 1518.86 1048.16 1577.09 1026.35 1601.59 1013.21 C 1616.11 1005.4 1621.52 997.541 1630.56 994.771 Z" style="stroke: rgb(129, 151, 57); paint-order: stroke; stroke-width: 0px; fill: rgb(100, 133, 90);"/>
  <path d="M 1720.33 96.781 L 1721.48 97.662 C 1722.18 106.492 1704.37 242.947 1699.76 252.005 C 1696.25 258.908 1690.25 265.102 1685.29 271.028 C 1673.6 285.006 1660.37 298.929 1650.39 314.149 L 1649.62 315.339 C 1667.3 299.453 1685.11 283.623 1703.8 268.93 C 1703.26 294.803 1684.84 410.856 1673.75 431.917 C 1667.13 444.495 1653.03 452.563 1644.31 463.8 L 1643.39 465.014 C 1653.38 458.223 1663.3 451.924 1674.31 446.9 C 1664.32 493.631 1652.74 541.034 1636.49 586.026 C 1630.84 601.679 1620.48 632.022 1610.86 644.574 C 1600.63 657.937 1546.01 682.063 1527.93 690.548 C 1538.48 688.547 1548.66 684.109 1558.82 680.705 C 1573.95 675.635 1589.36 671.105 1604.15 665.093 C 1594.24 689.665 1579.22 711.979 1568.36 736.154 C 1582.69 776.476 1591.1 817.38 1600.36 858.995 C 1627.54 825.973 1688.91 760.405 1724.54 740.79 C 1724.57 748.903 1724.22 757.025 1723.98 765.134 C 1732.81 746.547 1739.2 734.568 1755.74 721.402 C 1794.37 690.66 1836.07 676.78 1883.58 666.709 C 1890.3 665.286 1898.62 661.551 1905.45 662.313 L 1905.82 663.676 C 1899.17 672.101 1893.91 681.379 1887.69 690.091 C 1880.49 700.168 1871.88 709.791 1863.17 718.588 C 1868.14 701.845 1879.09 688.039 1888.92 673.866 C 1863.67 689.003 1854.76 708.518 1845.17 735.265 C 1868.97 719.38 1886.69 698.392 1906.51 678.224 C 1920.23 664.265 1934.59 650.82 1948.58 637.124 C 1946.02 652.437 1943.24 667.712 1940.24 682.944 C 1930.74 729.737 1914.29 809.784 1891.27 850.549 C 1886.26 859.433 1879.84 867.452 1872.28 874.3 C 1862.4 883.162 1851.29 890.544 1839.29 896.213 C 1833.79 898.761 1827.8 900.606 1822.73 903.956 C 1823.34 904.05 1823.93 904.217 1824.55 904.239 C 1827.47 904.344 1832.69 902.225 1835.56 901.333 C 1861.48 893.27 1873.04 876.551 1892.87 860.201 C 1880.74 887.312 1858.11 903.96 1833.52 919.287 C 1848.85 914.716 1863.7 906.133 1877.96 898.909 C 1877.48 900.461 1876.99 901.984 1876.42 903.504 C 1873.11 912.279 1867.82 920.712 1863.31 928.953 C 1850.22 952.827 1837.5 976.337 1812.3 989.001 C 1801.54 994.411 1789.46 996.311 1778.57 1001.35 L 1779.17 1001.87 C 1790.89 1000.49 1805.06 997.141 1815.71 992.051 C 1795.05 1019.7 1753.1 1064.25 1723.37 1081.38 C 1715.22 1086.08 1706.17 1089.09 1697.13 1091.58 C 1654.29 1103.35 1609.06 1099.75 1565.58 1093.87 C 1558.34 1092.89 1545.74 1092.5 1539.52 1088.99 C 1544.57 1088.14 1552.2 1089.46 1557.5 1089.55 C 1574.36 1089.94 1591.22 1089.89 1608.08 1089.42 C 1695.68 1086.13 1724.34 1071 1782.99 1007.88 C 1736.69 1017.92 1680.46 1007.79 1633.85 1001.97 C 1566.43 1063.74 1495.94 1103.85 1414.79 1143.94 C 1424.11 1148.22 1434.84 1150.63 1444.66 1153.59 C 1468.54 1160.92 1492.61 1167.6 1516.84 1173.65 C 1523.4 1175.33 1531.2 1177.76 1538.02 1176.99 C 1559.08 1174.6 1612.8 1147.7 1632.24 1136.22 C 1619.41 1132.7 1606.23 1130.5 1593.33 1127.25 C 1572.27 1121.96 1551.52 1115.35 1530.9 1108.57 C 1543.99 1109.89 1556.73 1113.22 1569.86 1114.49 C 1604.23 1117.8 1642.78 1115.7 1675.56 1104.27 C 1692.7 1098.29 1709.46 1090.04 1726.11 1082.76 C 1699.54 1109.23 1677.16 1117.96 1641.67 1127.2 C 1651.66 1128.8 1661.53 1128.59 1671.6 1128.4 C 1655.53 1136.28 1642 1149.07 1626.11 1157.57 C 1601.23 1170.88 1574.22 1180.28 1548.66 1192.19 C 1537.77 1235.76 1517.71 1278.47 1504.63 1321.52 C 1508.14 1323.8 1510.92 1326.31 1513.85 1329.28 C 1493.81 1381 1471.86 1431.95 1448.02 1482.03 C 1452.44 1496.2 1455.4 1510.87 1460.5 1524.81 C 1466.58 1541.43 1475.13 1557.02 1482.34 1573.17 C 1484.71 1578.49 1488.05 1584.19 1485.16 1590.02 C 1483.66 1593.05 1481.44 1594.47 1478.49 1595.89 C 1438.51 1615.1 1333.28 1597.5 1285.31 1593.9 C 1254.96 1591.63 1224.15 1590.37 1193.74 1591.84 C 1117.96 1595.53 1057.12 1612.16 987.362 1641.01 C 941.287 1660.91 898.581 1687.91 856.513 1715.09 C 796.983 1753.55 743.751 1790.52 672.869 1805.72 C 668.683 1814.39 664.158 1822.75 658.753 1830.73 C 622.642 1884.09 564.283 1913.06 502.322 1925.01 C 426.409 1939.64 332.22 1933.29 266.948 1889.31 C 292.718 1876.28 317.014 1864.17 340.565 1847.13 C 373.241 1823.49 399.282 1794.23 422.852 1761.73 C 490.03 1669.12 525.932 1560.82 553.746 1450.93 C 567.011 1399.39 577.951 1347.29 586.533 1294.78 C 530.7 1285.75 459.285 1294.7 404.863 1308.94 C 354.455 1322.13 270.424 1361.79 243.337 1407.82 C 243.518 1437.98 245.408 1468.44 243.104 1498.54 C 238.739 1555.56 216.72 1614.54 183.206 1660.76 C 174.813 1672.33 165.112 1682.67 155.426 1693.15 C 118.175 1643.91 105.716 1583.23 99.676 1523.05 C 85.997 1386.75 118.915 1251.58 171.384 1126.5 C 188.986 1084.53 209.627 1043.74 228.322 1002.25 C 258.003 936.379 287.503 870.42 297.065 798.044 C 283.209 792.482 267.869 789.573 253.668 784.765 C 249.863 783.477 242.921 781.747 241.06 778.025 C 240.404 756.679 289.058 669.5 303.452 647.097 C 311.148 635.119 328.804 606.574 339.777 599.42 C 342.992 597.325 347.533 596.688 351.246 595.884 C 359.785 586.454 367.317 576.093 375.766 566.566 C 389.525 551.05 405.04 536.182 420.085 521.911 C 540.996 405.864 694.582 329.682 860.135 303.635 C 1000.05 282.278 1142.24 304.284 1264.44 377.139 C 1294.96 395.331 1321.24 416.447 1349.67 437.356 C 1350.62 434.607 1351.36 432.327 1353.25 430.043 L 1354.73 430.072 C 1361.36 439.789 1365.83 453.007 1370.69 463.85 C 1369.22 449.369 1366.67 420.394 1370.49 407.003 C 1379.34 376.045 1470.93 253.248 1496.92 238.359 C 1500.16 267.971 1501.92 297.987 1507.48 327.277 C 1509.63 306.085 1525.33 224.066 1536.67 207.975 C 1543.56 198.189 1555.02 190.379 1564.43 183.063 C 1602.12 153.739 1641.49 128.642 1685.19 109.261 C 1696.28 104.342 1708.37 98.844 1720.33 96.781 Z" style="stroke-width: 2px;"/>
  <path d="M 1063.98 377.957 C 1065.68 377.841 1067.39 377.751 1069.1 377.688 C 1110.58 376.373 1215.63 380.004 1252.12 396.225 C 1276.4 407.016 1315.01 438.539 1335.11 457.167 C 1289.03 540.333 1248.25 608.747 1267.29 708.25 C 1263.23 699.61 1247.58 664.371 1241.55 660.105 C 1240.67 660.83 1240.49 660.904 1239.74 661.979 C 1235.62 667.861 1233.35 678.362 1231.08 685.234 C 1218.87 722.072 1209.74 758.233 1203.31 796.556 C 1201.27 808.716 1198.9 821.162 1198.04 833.468 C 1197.12 846.537 1199.12 859.787 1200.27 872.797 L 1199.32 873.742 L 1194.86 870.749 L 1193.64 871.347 C 1193.43 871.947 1193.07 872.927 1192.92 873.596 C 1190.17 885.782 1191.14 903.71 1191.3 916.528 C 1192.05 976.098 1197.61 1021.88 1230.54 1073.45 C 1226.59 1083.82 1221.97 1094.02 1217.65 1104.25 C 1203.67 1095.83 1176.41 1068.84 1162.76 1056.98 C 1126.73 1025.66 1090.29 995.181 1053.36 964.942 C 1029.39 945.398 1004.54 927.124 979.755 908.653 C 866.141 822.407 743.668 748.501 614.406 688.185 C 592.621 678.269 570.822 667.528 548.408 659.14 C 566.57 637.658 582.159 614.304 600.856 593.211 C 725.016 453.137 879.033 389.169 1063.98 377.957 Z" style="fill-opacity: 0.83; stroke-width: 0px; fill: url(&quot;#gradient-1&quot;);"/>
  <path d="M 850.194 1073.31 C 880.942 1093.77 911.329 1114.77 941.341 1136.29 C 989.602 1171.27 1036.66 1207.83 1084.63 1243.21 C 1089.92 1266.44 1098.28 1286.79 1115.4 1303.85 C 1141.4 1329.74 1169.02 1335.85 1204.41 1335.93 C 1227.36 1349.02 1247 1369.84 1268.05 1385.89 C 1317.88 1423.87 1372.11 1462.46 1427.36 1492.06 C 1429.24 1502.38 1431.51 1512.42 1434.16 1522.56 C 1397.64 1520.35 1361.49 1511.75 1325.68 1504.68 C 1264.81 1492.66 1205.61 1487.11 1143.9 1495.77 C 1041.51 1507.11 956.25 1539.49 868.758 1592.78 C 840.276 1610.13 813.04 1629.46 784.562 1646.88 C 762.828 1660.17 740.321 1672.31 718.096 1684.76 C 722.114 1666.71 728.586 1648.79 733.481 1630.91 C 744.47 1590.75 754.84 1549.88 762.706 1509.01 C 776.421 1433.89 788.661 1358.5 799.42 1282.9 C 806.559 1233.63 811.571 1179.98 825.046 1132.06 C 830.824 1111.52 839.718 1091.87 850.194 1073.31 Z" style="fill: url(&quot;#gradient-6&quot;);"/>
  <path d="M 332.184 638.037 C 390.154 646.833 453.986 667.79 508.69 688.829 C 746.841 780.42 978.547 944.85 1166.32 1115.99 C 1133.62 1128.04 1110.7 1147.56 1095.19 1179.12 C 1092.95 1183.44 1091.11 1188.09 1089.1 1192.53 C 1062.44 1168.63 1032.46 1147.68 1003.94 1125.99 C 975.293 1104.19 946.505 1082.37 916.944 1061.82 C 873.98 1032.47 830.376 1004.07 786.164 976.643 C 765.593 963.729 745.376 949.997 724.544 937.542 C 616.991 872.513 503.431 817.983 385.434 774.704 C 349.012 761.745 311.993 748.332 273.996 740.761 C 283.389 713.343 314.337 662.285 332.184 638.037 Z" style="fill: url(&quot;#gradient-9&quot;);"/>
  <path fill="rgb(45,43,40)" d="M 752.706 864.347 C 762.757 861.529 773.547 864.347 780.938 871.719 C 788.329 879.092 791.173 889.875 788.379 899.933 C 785.586 909.992 777.589 917.764 767.455 920.27 C 752.119 924.062 736.577 914.846 732.548 899.57 C 728.52 884.294 737.494 868.612 752.706 864.347 Z"/>
  <path fill="rgb(254,253,244)" d="M 755.356 872.067 C 765.691 869.428 776.242 875.519 779.127 885.788 C 782.011 896.056 776.175 906.751 765.978 909.88 C 759.162 911.972 751.747 910.206 746.605 905.266 C 741.463 900.326 739.402 892.988 741.219 886.093 C 743.037 879.199 748.447 873.83 755.356 872.067 Z"/>
  <path fill="rgb(45,43,40)" d="M 749.896 892.47 L 753.325 893.737 C 758.297 900.4 758.223 895.154 764.354 896.298 C 766.491 898.676 766.841 900.368 767.37 903.387 C 762.279 905.657 758.532 906.348 753.162 904.31 C 750.622 903.346 749.462 901.864 748.266 899.477 C 747.877 896.204 748.351 895.214 749.896 892.47 Z"/>
  <path fill="rgb(45,43,40)" d="M 567.265 762.666 C 572.766 762.122 577.526 761.775 582.757 763.862 C 590.003 766.753 595.484 772.701 598.267 779.933 C 601.172 787.482 601.191 796.51 597.55 803.815 C 593.88 811.177 587.737 815.252 580.103 817.677 C 574.004 818.187 568.058 818.661 562.236 816.288 C 555.638 813.599 550.584 808.54 548.079 801.851 C 545.262 794.327 545.69 785.248 549.062 777.97 C 552.899 769.69 558.921 765.618 567.265 762.666 Z"/>
  <path fill="rgb(254,253,244)" d="M 566.311 769.652 C 569.138 769.322 571.945 769.085 574.781 769.483 C 579.742 770.18 584.602 773.419 587.523 777.438 C 590.6 781.634 591.73 786.948 590.623 792.033 C 589.178 798.934 584.699 802.26 579.054 805.865 C 575.669 806.621 572.405 807.147 568.923 806.758 C 564.952 806.305 561.321 804.3 558.822 801.181 C 555.537 797.045 554.69 791.495 555.537 786.379 C 556.745 779.082 560.424 773.898 566.311 769.652 Z"/>
  <path fill="rgb(45,43,40)" d="M 562.648 792.326 C 564.549 792.345 564.208 792.296 565.887 792.459 C 570.082 792.864 574.076 793.07 576.938 796.524 C 577.411 799.68 576.584 800.309 575.067 803.032 C 573.344 803.348 571.801 803.609 570.035 803.324 C 567.452 802.906 563.922 799.714 562.825 797.516 C 561.623 795.107 561.892 794.768 562.648 792.326 Z"/>
  <path fill="rgb(45,43,40)" d="M 948.452 991.381 C 963.431 989.4 977.22 999.821 979.407 1014.77 C 981.593 1029.72 971.366 1043.65 956.448 1046.05 C 946.61 1047.63 936.684 1043.79 930.47 1036 C 924.255 1028.22 922.715 1017.68 926.439 1008.44 C 930.163 999.201 938.574 992.681 948.452 991.381 Z"/>
  <path fill="rgb(254,253,244)" d="M 947.105 998.501 C 949.104 998.411 951.164 998.301 953.151 998.591 C 958.604 999.391 964.256 1002.88 967.23 1007.54 C 970.118 1012.06 970.781 1017.59 969.426 1022.74 C 967.529 1029.96 962.967 1033.64 956.808 1037.32 C 955.214 1037.4 953.714 1037.37 952.132 1037.13 C 946.215 1036.2 940.84 1034.12 937.282 1029.06 C 934.206 1024.68 933.396 1019.03 934.588 1013.87 C 936.33 1006.33 940.745 1002.37 947.105 998.501 Z"/>
  <path fill="rgb(45,43,40)" d="M 941.821 1017.96 C 945.223 1018.7 946.916 1019.66 949.317 1022.13 L 950.678 1023.55 C 954.318 1024.29 960.601 1020.24 964.539 1019.09 L 965.986 1019.92 C 965.794 1023.94 964.26 1026.56 962.373 1030.06 L 959.963 1030.25 C 958.339 1028.93 957.697 1028.45 955.632 1027.82 C 953.935 1029.12 952.003 1030.88 950.085 1031.81 C 948.156 1032.74 945.683 1032.55 943.769 1031.64 C 941.597 1030.61 940.287 1027.94 939.801 1025.67 C 939.065 1022.24 940.228 1020.82 941.821 1017.96 Z"/>
  <path fill="rgb(45,43,40)" d="M 352.523 672.62 C 356.752 672.539 360.762 673.012 364.683 674.713 C 371.14 677.488 376.179 682.786 378.63 689.373 C 381.416 696.841 381.388 705.699 377.636 712.844 C 373.097 721.485 366.212 724.711 357.327 727.364 C 352.194 727.58 347.674 727.462 342.921 725.292 C 336.853 722.542 332.24 717.343 330.232 710.991 C 327.665 702.941 329.144 694.173 333.346 686.945 C 337.773 679.328 344.126 674.854 352.523 672.62 Z"/>
  <path fill="rgb(254,253,244)" d="M 355.047 679.604 C 357.798 679.8 360.498 680.274 363.003 681.485 C 367.044 683.439 369.894 687.455 371.145 691.681 C 372.803 697.279 371.794 703.573 368.763 708.527 C 365.575 713.739 361.777 715.578 356.001 716.957 C 353.327 716.507 350.546 716.09 347.958 715.273 C 344.313 714.123 341.308 711.261 339.698 707.838 C 337.758 703.713 337.946 699.203 339.502 694.976 C 342.294 687.393 347.966 682.886 355.047 679.604 Z"/>
  <path fill="rgb(45,43,40)" d="M 348.747 700.464 C 350.542 699.401 352.773 699.399 354.57 700.458 C 356.367 701.518 357.444 703.472 357.382 705.558 C 357.319 707.643 356.127 709.529 354.269 710.479 C 351.518 711.887 348.146 710.855 346.653 708.149 C 345.161 705.442 346.088 702.04 348.747 700.464 Z"/>
  <path d="M 716.753 988.008 C 740.575 999.771 763.503 1015.42 785.791 1029.91 C 796.757 1037.04 808.477 1043.77 818.576 1052.09 C 787.778 1097.19 777.823 1147.35 769.194 1200.18 C 762.736 1239.7 758.134 1279.5 751.761 1318.99 C 740.096 1391.28 726.82 1462.62 709.912 1533.88 C 689.586 1619.55 665.44 1708.48 618.91 1784.04 C 589.777 1831.34 546.361 1851.92 493.824 1864.25 C 463.936 1870.76 429.075 1875.29 398.58 1872.46 C 408.828 1857.15 424.701 1845.21 436.327 1830.77 C 475.378 1782.27 499.484 1743.28 526.344 1686.88 C 570.212 1594.78 603.398 1478.13 622.198 1377.89 C 634.338 1313.17 642.978 1247.81 655.059 1183.05 C 668.053 1113.39 680.796 1050.12 716.753 988.008 Z" style="fill: url(&quot;#gradient-5&quot;);"/>
  <path fill="rgb(45,43,40)" d="M 694.97 1269.48 C 709.961 1268.96 722.512 1280.74 722.937 1295.74 C 723.361 1310.73 711.495 1323.2 696.498 1323.53 C 681.642 1323.85 669.312 1312.12 668.892 1297.27 C 668.472 1282.41 680.119 1270 694.97 1269.48 Z"/>
  <path fill="rgb(254,253,244)" d="M 693.032 1277.57 C 695.996 1277.69 699.482 1278.17 702.192 1279.42 C 706.466 1281.39 709.705 1285.43 711.32 1289.79 C 713.198 1294.76 712.929 1300.28 710.577 1305.04 C 708.058 1310.11 704.462 1312.45 699.234 1314.16 C 696.556 1314.06 693.567 1313.99 691.006 1313.14 C 686.772 1311.73 683.126 1307.86 681.187 1303.95 C 678.87 1299.24 678.684 1293.76 680.676 1288.91 C 683.085 1283.06 687.368 1279.9 693.032 1277.57 Z"/>
  <path fill="rgb(45,43,40)" d="M 685.124 1289.69 C 685.427 1289.75 685.735 1289.78 686.034 1289.86 C 688.013 1290.35 689.102 1290.98 690.139 1292.79 C 694.025 1299.58 698.869 1299.37 705.281 1302.82 L 705.28 1304.6 C 702.73 1307.39 699.14 1308.67 695.757 1310.2 C 692.756 1309.31 690.531 1308.41 687.847 1306.81 L 687.593 1305.31 C 689.848 1304.2 691.21 1303.65 692.887 1301.68 L 692.114 1300.63 C 689.801 1301.08 687.567 1301.64 685.205 1301.27 C 683.571 1301.01 683.61 1300.27 682.793 1298.99 C 682.54 1295.44 683.772 1292.92 685.124 1289.69 Z"/>
  <path fill="rgb(45,43,40)" d="M 584.583 1667.63 C 598.555 1665.47 611.679 1674.91 614.074 1688.85 C 616.469 1702.78 607.252 1716.06 593.361 1718.69 C 584.164 1720.44 574.742 1717.08 568.716 1709.92 C 562.689 1702.76 560.995 1692.9 564.283 1684.14 C 567.572 1675.37 575.332 1669.06 584.583 1667.63 Z"/>
  <path fill="rgb(254,253,244)" d="M 589.348 1675.8 C 591.604 1676.15 594.019 1676.46 596.124 1677.38 C 600.018 1679.1 602.97 1682.43 604.207 1686.5 C 605.755 1691.6 604.738 1697.05 602.045 1701.59 C 598.656 1707.29 595.293 1709.12 589 1710.72 C 586.369 1710.28 583.457 1709.84 581.116 1708.5 C 577.219 1706.26 574.288 1702.28 573.138 1697.96 C 571.898 1693.3 572.755 1688.27 575.23 1684.17 C 578.602 1678.58 583.287 1677.1 589.348 1675.8 Z"/>
  <path fill="rgb(45,43,40)" d="M 575.89 1689.17 C 581.055 1690.38 583.529 1695.35 588.511 1697.12 C 590.449 1696.83 592.04 1696.47 593.987 1696.86 C 595.571 1697.18 595.818 1698.28 596.694 1699.53 L 594.504 1703.23 C 591.662 1705.29 589.165 1706.83 585.491 1706.36 C 582.332 1705.95 579.625 1704.15 577.841 1701.56 C 575.04 1697.5 574.926 1693.86 575.89 1689.17 Z"/>
  <path d="M 403.318 832.791 C 424.5 841.66 446.036 849.764 467.005 859.132 C 496.988 872.528 526.302 887.34 555.858 901.632 C 594.318 920.23 633.829 939.544 669.504 963.087 C 624.76 1037.8 609.527 1121.47 598.615 1206.56 C 549.782 1201.34 500.51 1201.73 451.766 1207.74 C 380.393 1217.8 317.904 1240.88 257.734 1280.4 C 271.545 1232.54 289.973 1187.7 311.303 1142.76 C 353.721 1053.38 429.327 935.457 403.318 832.791 Z" style="fill: url(&quot;#gradient-7&quot;);"/>
  <path d="M 1707.42 109.439 L 1707.79 109.488 L 1708.47 110.468 C 1703.2 121.881 1689.58 135.809 1681.68 146.56 C 1671.72 160.115 1662.61 174.399 1653.24 188.37 C 1620.89 236.778 1591.52 287.115 1565.29 339.101 C 1545.87 376.788 1527.81 415.122 1508.77 452.985 C 1496.31 477.78 1482.66 501.99 1470.3 526.836 C 1434.81 599.514 1400.44 672.739 1367.22 746.484 C 1342.13 803.337 1317.97 860.6 1294.76 918.248 C 1276.31 963.834 1258.64 1009.91 1239.12 1055.03 C 1212.12 1007.9 1207.26 956.399 1206.07 903.265 C 1220.37 925.847 1231.93 950.068 1246.05 972.721 C 1238.84 951.185 1233.2 928.902 1227.14 907.019 C 1222.09 888.794 1215.13 868.386 1213.44 849.613 C 1210.53 817.254 1232.2 724.317 1244.46 690.817 C 1252.62 708.663 1259.49 727.111 1267.48 745.041 C 1274.7 761.216 1283.02 776.94 1291.08 792.705 C 1295.39 801.296 1300.12 809.54 1305.01 817.804 L 1288.15 738.152 C 1284.02 718.42 1279.26 698.625 1277.54 678.497 C 1276.34 664.412 1276.85 650.259 1277.4 636.156 C 1288.86 665.563 1315.05 725.806 1332.79 749.797 C 1321.27 696.5 1308.34 642.868 1291.17 591.092 C 1297.46 555.584 1327.68 494.458 1350.38 465.811 C 1356.16 480.679 1362.55 495.343 1368.11 510.287 C 1381.09 545.154 1393.04 580.441 1408.05 614.514 C 1396.33 554.546 1386.06 493.277 1383.53 432.148 C 1383.23 424.83 1383.17 417.482 1385.68 410.487 C 1398.21 375.575 1455.57 301.686 1481.81 273.136 C 1483.82 286.318 1484.19 300.069 1485.56 313.368 C 1489.77 354.069 1496.57 413.881 1508.65 451.541 C 1510.32 438.948 1510.33 426.057 1511.67 413.397 C 1516.2 370.631 1521.12 326.602 1529.52 284.398 C 1532.72 268.338 1541.01 229.728 1548.24 217.652 C 1553.21 209.361 1564.05 202.168 1571.62 196.336 C 1593.9 179.159 1617.19 162.736 1641.36 148.314 C 1663.26 135.247 1686.21 123.613 1707.42 109.439 Z" style="stroke: url(&quot;#gradient-0&quot;); fill: rgb(77, 80, 114); paint-order: fill; stroke-width: 0px;"/>
  <path d="M 1704.74 119.677 C 1704.73 119.853 1704.74 120.03 1704.73 120.205 C 1703.56 131.591 1699.81 143.654 1697.67 155.024 C 1694.7 170.893 1685.35 236.438 1680.74 246.073 C 1677.56 252.736 1669.69 260.185 1664.92 266.157 L 1619.2 323.396 C 1606.84 339.171 1596.04 356.123 1583.71 371.882 C 1581.22 375.062 1578.34 377.839 1575.33 380.527 C 1586.9 375.069 1597.45 366.773 1607.8 359.311 C 1633.49 340.777 1657.96 321.405 1681.35 300.051 C 1676.02 327.262 1672.12 354.749 1666.69 381.951 C 1664.36 393.651 1662.24 406.278 1658.12 417.48 C 1644.14 455.43 1554.92 505.706 1518.33 522.792 C 1558.21 513.337 1609.86 491.37 1647.92 475.302 C 1636.86 528.928 1618.32 582.193 1595.97 632.066 C 1583.92 639.907 1572.47 648.441 1560.08 655.813 C 1523.75 677.431 1485.03 694.503 1446.13 710.877 C 1493.61 708.261 1523.92 703.733 1569.67 689.275 C 1558.2 711.105 1545.01 731.99 1533.49 753.782 C 1520.23 778.873 1507.37 811.023 1490.06 833.02 C 1478.94 847.162 1464.95 858.46 1450.49 868.991 C 1430.09 883.024 1406.95 892.725 1385.39 904.788 C 1406.61 901.634 1428.96 899.283 1449.11 891.622 C 1447.58 897.326 1445.49 902.863 1442.86 908.151 C 1425.2 943.426 1390.87 960.144 1356.9 976.378 C 1343.62 982.728 1330.55 989.459 1316.53 994.081 C 1338.62 992.151 1359.32 987.797 1380.61 981.842 C 1352.81 1010.95 1320.41 1033.92 1286.68 1055.65 C 1295.98 1024.69 1307.23 994.471 1317.99 964.009 C 1324.43 945.778 1330.16 927.311 1336.78 909.133 C 1355.92 856.547 1376.59 804.369 1396.75 752.164 C 1425.52 675.49 1455.86 599.413 1487.75 523.982 C 1534.99 410.632 1586.64 297.099 1653.38 193.68 C 1669.53 168.666 1685.6 142.491 1704.74 119.677 Z" style="fill: rgb(77, 80, 114);"/>
  <path d="M 937.973 316.973 C 996.737 314.512 1069.81 320.5 1125.29 340.986 C 1069.37 338.174 1013.3 341.373 958.065 350.527 C 784.546 378.447 629.385 474.565 527.11 617.493 C 520.329 626.157 514.426 635.663 508.32 644.814 C 467.97 627.05 411.88 612.406 368.187 604.262 C 372.433 597.937 377.917 592.233 383.077 586.635 C 527.659 429.785 722.711 325.55 937.973 316.973 Z" style="stroke-width: 0px; stroke: rgb(146, 146, 146); fill: url(&quot;#gradient-2&quot;);"/>
  <path d="M 690.893 972.062 C 696.85 975.215 702.646 979.736 708.303 983.466 C 668.818 1046.66 655.572 1121.59 642.623 1193.78 C 630.977 1258.7 622.307 1324.23 609.918 1388.99 C 595.669 1463.47 574.736 1538.98 547.496 1609.8 C 520.712 1679.42 492.151 1741.45 446.637 1801.09 C 437.118 1813.56 427.625 1825.97 417.112 1837.64 C 410.363 1845.13 381.063 1869.78 379.341 1876.77 C 379.016 1878.09 379.852 1878.63 380.551 1879.66 C 388.071 1883.42 398.151 1882.44 406.39 1882.53 C 444.856 1883.3 483.226 1878.39 520.261 1867.96 C 550.889 1859.06 581.979 1843.28 604.001 1819.78 C 686.648 1731.58 738.109 1470.73 757.299 1348.64 C 763.523 1307.91 769.424 1267.13 775.002 1226.31 C 781.347 1182.38 786.952 1139.85 803.151 1098.16 C 808.924 1083.3 816.745 1069.56 824.442 1055.64 L 841.325 1067.81 C 832.422 1083.77 823.93 1099.11 817.508 1116.28 C 806.88 1148.87 802.409 1181.32 797.022 1215.03 C 789.817 1260.11 783.534 1305.23 777.029 1350.42 C 760.756 1463.46 738.36 1577.19 701.447 1685.47 C 684.865 1734.12 656.403 1806.89 620.791 1844.07 C 606.331 1859.17 589.463 1870.2 570.742 1879.33 C 504.329 1911.7 424.602 1919.14 352.621 1903.68 C 336.914 1900.3 321.896 1895.32 306.727 1890.13 C 390.894 1848.43 456.018 1758.65 495.816 1675.7 C 511.21 1643.62 523.221 1610.46 534.656 1576.8 C 563.255 1490.31 585.433 1401.82 601.009 1312.06 C 605.867 1283.88 611.194 1255.69 615.523 1227.43 C 628.77 1140.96 639.687 1045.77 690.893 972.062 Z" style="fill: url(&quot;#gradient-12&quot;);"/>
  <path d="M 1185.16 1124.24 C 1240.28 1118.79 1289.3 1159.25 1294.4 1214.41 C 1299.5 1269.56 1258.72 1318.32 1203.53 1323.07 C 1148.84 1327.77 1100.62 1287.44 1095.57 1232.78 C 1090.51 1178.13 1130.53 1129.64 1185.16 1124.24 Z" style="fill: url(&quot;#gradient-8&quot;);"/>
  <path d="M 1192.73 1144.38 C 1236.31 1143.27 1272.59 1177.58 1273.9 1221.16 C 1275.21 1264.73 1241.07 1301.16 1197.5 1302.68 C 1153.65 1304.21 1116.92 1269.79 1115.6 1225.93 C 1114.28 1182.07 1148.87 1145.5 1192.73 1144.38 Z" style="fill: rgb(21, 21, 21);"/>
  <path d="M 1188.46 1155.38 C 1225.69 1151.73 1258.87 1178.83 1262.74 1216.03 C 1266.61 1253.24 1239.72 1286.59 1202.54 1290.68 C 1165.04 1294.82 1131.34 1267.64 1127.43 1230.11 C 1123.53 1192.59 1150.91 1159.05 1188.46 1155.38 Z" style="fill: url(&quot;#gradient-15&quot;);"/>
  <path fill="rgb(45,43,40)" d="M 1185.56 1190.91 C 1206.15 1188.95 1224.41 1204.07 1226.33 1224.66 C 1228.25 1245.25 1213.09 1263.49 1192.49 1265.36 C 1171.96 1267.23 1153.79 1252.12 1151.88 1231.59 C 1149.97 1211.07 1165.04 1192.86 1185.56 1190.91 Z"/>
  <path d="M 1184.04 1198.91 C 1198.82 1195.42 1213.62 1204.6 1217.05 1219.38 C 1220.49 1234.17 1211.25 1248.94 1196.45 1252.32 C 1181.73 1255.68 1167.06 1246.5 1163.64 1231.79 C 1160.22 1217.08 1169.35 1202.38 1184.04 1198.91 Z" style="fill: url(&quot;#gradient-14&quot;);"/>
  <path d="M 1192.59 1535.96 C 1236.38 1532.51 1288.15 1541.32 1331.16 1549.36 C 1370.79 1556.77 1410.95 1567.78 1451.38 1561.26 L 1460.47 1580.69 C 1404.69 1589.47 1349.51 1580.32 1293.87 1575.18 C 1161.85 1562.99 1055.7 1578.24 937.354 1640.62 C 912.06 1653.96 887.861 1669.45 863.53 1684.44 C 815.889 1714.16 770.598 1745.96 719.179 1769.19 C 706.26 1775.03 693.248 1780.98 679.493 1784.55 C 684.283 1771.39 690.616 1758.58 695.896 1745.57 C 746.417 1727.22 792.225 1694.47 836.639 1664.82 C 875.035 1639.19 914.286 1613.98 955.916 1593.85 C 1029.87 1558.09 1110.93 1540.18 1192.59 1535.96 Z" style="fill: rgb(176, 76, 76);"/>
  <path d="M 313.424 802.256 L 330.071 808.404 C 324.188 919.881 274.862 1000.73 230.435 1099.75 C 168.093 1238.71 116.084 1412.06 149.338 1565.1 C 154.574 1589.2 163.294 1611.02 172.024 1633.94 L 157.794 1656 L 155.751 1658.9 L 154.227 1658.95 C 125.554 1606.1 116.427 1539.78 114.685 1480.28 C 111.17 1360.19 141.652 1241.9 188.402 1132.01 C 209.331 1082.81 233.383 1035.02 255.117 986.18 C 279.271 931.905 309.825 862.133 313.424 802.256 Z" style="fill: url(&quot;#gradient-11&quot;);"/>
  <path d="M 1924.83 680.499 L 1925.51 681.952 C 1920.44 718.128 1893.64 816.451 1873.88 845.253 C 1848.9 881.646 1803.02 905.631 1760.53 913.67 C 1786.72 917.481 1802.05 917.313 1827.91 912.689 C 1813.07 919.408 1798.75 927.653 1783.72 933.831 C 1760.63 943.326 1734.85 944.558 1710.2 944.945 C 1753.72 948.843 1799 945.37 1840.91 932.81 C 1833.66 947.056 1824 959.165 1812.02 969.668 C 1763.91 1003.65 1688.47 1002.39 1631.73 1001.58 C 1725.07 919.824 1826.87 824.973 1897.48 722.443 C 1906.98 708.657 1916.9 695.28 1924.83 680.499 Z" style="fill: rgb(100, 133, 90);"/>
  <path d="M 1303.77 1240.73 C 1325.9 1251.3 1347.76 1270.05 1368.27 1283.86 L 1436.95 1329.81 C 1450.51 1338.78 1464.57 1347.23 1477.61 1356.93 C 1465.9 1386.94 1453.66 1416.74 1440.9 1446.33 L 1431.7 1441.47 C 1369.51 1406.93 1309.67 1363.65 1255.76 1317.28 C 1280.67 1294.84 1297.56 1274.36 1303.77 1240.73 Z" style="fill: url(&quot;#gradient-10&quot;);"/>
  <path d="M 1550.51 759.252 C 1560.52 769.93 1576.57 862.543 1578.33 882.514 C 1569.45 891.941 1559.08 899.847 1549.94 909.058 C 1549.16 903.421 1548.94 897.695 1548.58 892.017 C 1540.37 904.059 1528.61 913.7 1518.4 924.012 C 1502.12 940.538 1486.08 957.29 1470.27 974.263 C 1466.05 978.848 1444.99 1003.64 1441.59 1005.27 C 1439.76 1006.14 1433.81 1004.87 1430.98 1005.58 C 1422.18 1007.78 1411.84 1014.09 1403.96 1018.7 C 1386.66 1028.83 1374.82 1043.7 1359.98 1056.6 C 1337.11 1076.49 1313.34 1095.35 1290.51 1115.31 C 1284.72 1120.44 1274.49 1131.14 1266.73 1132.31 C 1264.84 1132.6 1264.89 1132.2 1263.43 1131.22 C 1261.37 1123.62 1275.52 1090.75 1277.64 1080.13 L 1277.91 1078.72 C 1317 1057.02 1359.17 1033.78 1388.74 999.491 C 1397.62 989.193 1402.38 976.002 1411.09 966.03 C 1415.69 960.765 1421.86 956.622 1427.25 952.206 C 1438.6 942.908 1447.5 931.871 1455.08 919.334 C 1462.43 907.188 1468.88 893.417 1465.38 879.041 C 1476.5 868.265 1489.42 859.015 1499.3 847.03 C 1520.9 820.834 1530.88 788.208 1549.64 760.535 L 1550.51 759.252 Z" style="fill: url(&quot;#gradient-3&quot;);"/>
  <path d="M 349.944 613.139 C 392.202 618.186 446.659 636.298 487.502 650.233 C 708.044 725.48 920.197 867.908 1098.64 1015.89 C 1136.43 1047.23 1172.9 1080.64 1209.57 1113.3 L 1198.6 1112.64 L 1182.08 1113.64 C 1160.07 1096.42 1139.99 1076.85 1118.92 1058.51 C 1101.48 1043.34 1083.18 1029.23 1065.29 1014.61 C 1050.44 1002.46 1036.07 989.669 1020.99 977.824 C 868.775 858.308 698.205 750.282 517.347 680.127 C 459.323 657.62 400.422 638.306 338.743 628.526 C 342.162 623.241 346.21 618.215 349.944 613.139 Z" style="fill: rgb(176, 76, 76);"/>
  <path d="M 268.641 750.572 C 306.387 761.15 343.834 771.349 380.814 784.566 C 582.514 856.655 782.622 978.586 955.651 1104.29 C 983.803 1124.58 1011.61 1145.35 1039.06 1166.58 C 1055.12 1178.82 1072.43 1190.83 1086.97 1204.83 C 1085.68 1210.83 1085.73 1217.02 1083.92 1222.93 L 1082.33 1223.61 C 1050.11 1195.98 1015.27 1171.57 981.305 1146.18 C 843.79 1041.44 696.75 949.834 542.118 872.569 C 515.038 859.328 487.997 845.287 460.178 833.687 C 418.615 816.195 376.257 800.655 333.243 787.117 C 309.475 779.789 284.83 774.738 261.354 766.614 C 263.399 760.98 265.838 755.862 268.641 750.572 Z" style="fill: rgb(176, 76, 76);"/>
  <path d="M 1176.35 1503.94 C 1231.51 1498.79 1289.99 1509.59 1343.82 1520.41 C 1374.88 1526.65 1406.93 1534.31 1438.74 1533.83 C 1441.05 1539.75 1443.39 1545.66 1445.77 1551.56 C 1411.86 1556.8 1355.93 1541.36 1320.4 1535.29 C 1290.63 1530.2 1260.69 1525.26 1230.48 1523.82 C 1131.72 1519.12 1030.35 1544.1 941.999 1587.46 C 924.382 1596.1 907.492 1606.16 890.574 1616.08 C 839.117 1646.59 791.323 1683.1 738.966 1712.04 C 727.577 1718.33 715.163 1726.03 702.629 1729.63 L 711.741 1701.57 C 735.81 1687.87 760.305 1675.57 783.942 1661 C 821.716 1637.71 857.718 1611.47 895.966 1588.96 C 981.543 1539.2 1077.55 1510.09 1176.35 1503.94 Z" style="fill: url(&quot;#gradient-13&quot;);"/>
  <path d="M 1046.23 349.101 C 1073.85 346.677 1137 347.083 1163.69 353.65 C 1177.34 357.008 1190.97 363.123 1203.61 369.202 C 1159.53 362.108 1107.06 359.295 1062.23 361.137 C 881.29 368.572 720.305 438.662 597.111 572.223 C 573.267 598.853 553.378 626.738 532.78 655.891 C 527.389 652.415 521.373 650.164 515.473 647.708 C 535.986 618.543 557.533 590.848 581.124 564.114 C 701.109 428.148 867.67 360.473 1046.23 349.101 Z" style="fill: rgb(176, 76, 76);"/>
  <path d="M 1619.93 859.445 C 1622.03 863.668 1618.39 883.983 1617.84 889.545 C 1614.5 923.271 1612.99 956.58 1613.75 990.46 C 1582.11 1018.37 1546.25 1040.11 1510.76 1062.63 C 1509.77 1057.71 1518.23 1034.94 1520.1 1028.37 C 1530.18 992.881 1537.53 956.631 1547.47 921.097 C 1549.75 919.27 1552.36 916.734 1555.3 916.151 C 1556.34 915.945 1557.41 915.98 1558.46 915.853 C 1577.38 913.58 1607.8 874.534 1619.93 859.445 Z" style="fill: rgb(100, 133, 90);"/>
  <path d="M 1704.87 774.502 C 1707.25 777.666 1703.79 795.541 1703.35 800.289 C 1699.79 838.947 1699.7 879.394 1702 918.138 C 1694.05 926.155 1684.65 933.231 1676 940.501 C 1658.33 955.478 1640.42 970.177 1622.29 984.594 L 1622.06 984.725 L 1621.29 984.119 C 1632.67 935.635 1634.71 884.711 1642.74 835.585 C 1662.71 814.089 1682.16 793.194 1704.87 774.502 Z" style="fill: rgb(100, 133, 90);"/>
  <path d="M 1710.43 912.212 C 1713.7 891.369 1716.36 870.258 1718.75 849.296 C 1720.21 836.538 1720.92 823.464 1723.56 810.886 C 1727.22 793.45 1737.26 765.869 1747.25 751.135 C 1754.1 741.024 1809.67 699.067 1820.49 697.113 C 1795.07 728.396 1790.97 761.949 1789.86 800.943 C 1789.52 812.921 1788.81 825.993 1790.31 837.849 C 1790.45 838.918 1790.49 838.998 1790.7 839.898 C 1787 850.227 1723.89 900.947 1710.43 912.212 Z" style="fill: rgb(100, 133, 90);"/>
  <path d="M 1518.77 1199.75 L 1520.09 1199.85 L 1520.79 1201.1 C 1510.33 1237.95 1496.32 1274.88 1482.39 1310.54 C 1455.88 1294.39 1430.55 1275.7 1404.5 1258.72 C 1386.42 1246.48 1368.5 1234 1350.75 1221.29 C 1413.56 1222.3 1458.71 1215.21 1518.77 1199.75 Z" style="fill: url(&quot;#gradient-4&quot;);"/>
  <path d="M 1475.81 527.371 C 1475.4 534.664 1440.42 610.58 1433.89 626.391 C 1423.24 652.178 1413.43 678.279 1402.82 704.075 C 1345.91 842.381 1294.88 983.033 1249.86 1125.65 C 1244.46 1122.77 1238.86 1120.37 1233.25 1117.93 L 1225.74 1115.09 C 1249.86 1064.89 1268.71 1011.5 1289.41 959.776 C 1322.19 876.8 1356.31 794.361 1391.76 712.49 C 1408.67 672.079 1426.44 632.034 1445.06 592.382 C 1455.09 570.621 1464.47 548.494 1475.81 527.371 Z" style="fill: rgb(15, 15, 15);"/>
  <path d="M 1526.56 938.437 C 1526.65 948.15 1516.38 984.055 1513.71 996.501 C 1508.73 1020.17 1504.53 1043.99 1501.13 1067.94 C 1475.02 1082.89 1447.38 1094.9 1421.15 1109.59 C 1421.27 1107.15 1457.63 1012.3 1460.62 1007.63 C 1465.3 1000.31 1474.94 993.861 1481.07 987.359 C 1496.35 971.161 1510.28 953.673 1526.56 938.437 Z" style="fill: rgb(100, 133, 90);"/>
  <path d="M 1405.95 1146.47 C 1411.9 1146.43 1435.86 1161.38 1443.95 1165.16 C 1462.16 1173.68 1480.92 1181.79 1500.14 1187.75 C 1492.47 1190.47 1483.86 1191.86 1475.91 1193.61 C 1449.45 1199.42 1424.31 1203.05 1397.25 1204.47 C 1366.27 1206.08 1335.2 1205.04 1304.25 1203.38 L 1301.67 1187.53 C 1316.43 1181.03 1332.54 1176.4 1347.7 1170.75 C 1367.43 1163.39 1386.68 1154.95 1405.95 1146.47 Z" style="fill: rgb(100, 133, 90);"/>
  <path d="M 1435.16 1017.37 L 1436 1017.55 C 1437.04 1021.42 1430.66 1036.33 1429.38 1040.99 C 1422.77 1064.98 1418.51 1089.79 1413.32 1114.12 C 1389.28 1126.62 1354.16 1142.17 1328.75 1151.02 L 1327.46 1150.13 C 1335.43 1135.03 1344.07 1120.26 1352.2 1105.25 C 1358.94 1092.8 1370.99 1066.04 1379.59 1056.95 C 1385.92 1050.27 1395.9 1045.93 1403.41 1040.64 C 1414.13 1033.09 1424.44 1024.94 1435.16 1017.37 Z" style="fill: rgb(100, 133, 90);"/>
  <path d="M 1928.16 669.031 C 1920.6 681.621 1910.99 693 1902.51 704.978 C 1873.39 746.096 1843.11 785.528 1808.87 822.575 C 1804.23 827.596 1797.96 836.02 1791.91 838.936 C 1797.48 803.239 1803.02 765.18 1815.05 731.083 C 1819.38 718.829 1824.98 707.287 1830.64 695.617 C 1835.78 687.469 1846.63 684.797 1855.53 682.729 C 1859.11 681.92 1862.7 681.168 1866.31 680.473 C 1852.36 687.981 1841.47 703.085 1836.84 718.221 C 1834.44 726.079 1829.33 745.673 1833.1 753.134 C 1835.95 752.823 1840.38 747.686 1842.63 745.582 C 1854.36 734.609 1869.2 727.121 1881.35 716.609 C 1898.15 702.073 1912.15 684.443 1928.16 669.031 Z" style="fill: rgb(100, 133, 90);"/>
  <path d="M 1243.53 1323.81 C 1251.92 1327.52 1263.57 1339.7 1271.05 1345.73 C 1286.57 1358.17 1302.33 1370.31 1318.32 1382.13 C 1356.47 1409.34 1396.15 1434.33 1437.17 1456.96 L 1428.94 1473.28 C 1426.15 1472.31 1423.32 1470.75 1420.62 1469.52 C 1403.85 1460.82 1387.96 1450.25 1372.08 1440.04 C 1337.35 1417.92 1303.6 1394.3 1270.93 1369.24 C 1255.16 1357.25 1238.24 1345.57 1223.83 1331.99 C 1230.47 1329.4 1237.03 1326.73 1243.53 1323.81 Z" style="fill: rgb(176, 76, 76);"/>
  <path d="M 1305.87 1215.06 C 1312.38 1216.41 1322.3 1217.01 1328.14 1220.04 C 1346.4 1229.52 1363.46 1244.57 1380.44 1256.31 L 1488.64 1329.79 L 1484.06 1341.09 L 1482.69 1342.97 C 1479.69 1342.75 1476.8 1340.63 1474.27 1339.08 C 1439.28 1317.56 1405.55 1293.07 1371.48 1270.07 C 1355.21 1259.08 1319.25 1237.34 1306.99 1224.7 C 1305.16 1222.82 1305.83 1217.66 1305.87 1215.06 Z" style="fill: rgb(176, 76, 76);"/>
  <path d="M 1343.76 1089.59 L 1344.33 1090.63 C 1332.98 1111.3 1324.68 1133.46 1315.74 1155.24 C 1309.16 1157.53 1298.76 1162.59 1291.71 1161.59 C 1288.42 1161.11 1287.65 1159.1 1285.75 1156.67 C 1283.17 1153.45 1280.7 1150.13 1278.18 1146.86 C 1297.47 1125.86 1322.46 1108.68 1343.76 1089.59 Z" style="fill: rgb(100, 133, 90);"/>
</svg>