<?xml version="1.0" encoding="iso-8859-1"?>
<!-- Uploaded to: SVG Repo, www.svgrepo.com, Generator: SVG Repo Mixer Tools -->
<svg fill="#000000" height="800px" width="800px" version="1.1" id="Layer_1" xmlns="http://www.w3.org/2000/svg" xmlns:xlink="http://www.w3.org/1999/xlink" 
	 viewBox="0 0 512 512" xml:space="preserve">
<g>
	<g>
		<path d="M512,256c0-130.994-98.398-238.995-225.308-254.162c-0.046-0.005-0.091-0.01-0.137-0.016
			c-1.916-0.228-3.836-0.438-5.765-0.624c-0.348-0.034-0.698-0.061-1.046-0.093c-1.656-0.152-3.314-0.298-4.979-0.418
			c-0.674-0.049-1.352-0.084-2.027-0.128c-1.37-0.088-2.739-0.18-4.114-0.247c-1.084-0.053-2.171-0.084-3.258-0.124
			c-1-0.036-1.998-0.083-3.001-0.108C260.248,0.028,258.126,0,256,0s-4.248,0.028-6.365,0.081c-1.003,0.024-2,0.072-3.001,0.108
			c-1.086,0.039-2.174,0.071-3.258,0.124c-1.376,0.067-2.744,0.158-4.114,0.247c-0.676,0.044-1.353,0.079-2.027,0.128
			c-1.665,0.121-3.323,0.266-4.979,0.418c-0.349,0.032-0.698,0.059-1.046,0.093c-1.928,0.185-3.849,0.396-5.765,0.624
			c-0.046,0.005-0.091,0.01-0.137,0.016C98.398,17.005,0,125.006,0,256c0,73.026,30.581,138.908,79.632,185.547
			C119.15,485.493,184.636,512,256,512s136.85-26.507,176.368-70.453C481.419,394.908,512,329.026,512,256z M43.726,277.333h105.938
			c0.905,29.56,3.682,57.736,8.155,83.641c-22.012,9.194-42.686,21.47-61.46,36.516C67.389,364.829,48.283,323.224,43.726,277.333z
			 M95.361,115.634c17.612,15.259,38.736,27.738,62.199,36.94c-4.319,25.48-7.01,53.118-7.897,82.093H43.726
			C48.23,189.302,66.948,148.123,95.361,115.634z M468.274,234.667H362.336c-0.887-28.975-3.577-56.613-7.897-82.093
			c23.463-9.202,44.587-21.681,62.199-36.94C445.052,148.123,463.77,189.302,468.274,234.667z M192.377,234.667
			c0.873-24.79,3.233-48.291,6.684-69.8c18.265,3.796,37.378,5.8,56.939,5.8s38.674-2.005,56.939-5.8
			c3.451,21.51,5.812,45.011,6.684,69.8H192.377z M319.623,277.333c-0.881,25.02-3.276,48.728-6.779,70.4
			c-18.428-4.205-37.464-6.4-56.844-6.4s-38.416,2.195-56.844,6.4c-3.503-21.672-5.899-45.38-6.779-70.4H319.623z M345.223,110.247
			c-5.828-21.432-13.019-40.498-21.427-56.498c22.035,7.425,42.719,18.444,61.308,32.662
			C373.565,95.779,360.102,103.806,345.223,110.247z M304.28,123.094C288.89,126.292,272.678,128,256,128s-32.89-1.708-48.28-4.906
			c12.764-49.094,31.357-80.428,48.28-80.428S291.516,74.001,304.28,123.094z M166.777,110.247
			c-14.879-6.441-28.342-14.468-39.882-23.835c18.59-14.218,39.273-25.237,61.308-32.662
			C179.796,69.749,172.606,88.814,166.777,110.247z M167.229,403.419c5.758,20.799,12.813,39.319,21.024,54.924
			c-21.815-7.301-42.06-18.027-60.093-31.546C140.367,417.602,153.456,409.767,167.229,403.419z M207.875,389.496
			C223.462,385.878,239.582,384,256,384s32.538,1.878,48.125,5.496c-12.76,48.753-31.27,79.838-48.125,79.838
			S220.634,438.249,207.875,389.496z M323.747,458.343c8.211-15.605,15.267-34.125,21.024-54.924
			c13.773,6.348,26.861,14.183,39.068,23.378C365.807,440.316,345.562,451.042,323.747,458.343z M354.181,360.975
			c4.474-25.905,7.251-54.081,8.155-83.641h105.938c-4.557,45.891-23.664,87.496-52.633,120.157
			C396.867,382.444,376.193,370.168,354.181,360.975z"/>
	</g>
</g>
</svg>